<?xml version='1.0' encoding='UTF-8'?>
<svg width="46.2mm" height="46.2mm" version="1.1" xmlns="http://www.w3.org/2000/svg"><rect fill="white" x="0" y="0" width="100%" height="100%"/><svg:rect xmlns:svg="http://www.w3.org/2000/svg" x="2.8mm" y="2.8mm" width="1.4mm" height="1.4mm"/><svg:rect xmlns:svg="http://www.w3.org/2000/svg" x="4.2mm" y="2.8mm" width="1.4mm" height="1.4mm"/><svg:rect xmlns:svg="http://www.w3.org/2000/svg" x="5.6mm" y="2.8mm" width="1.4mm" height="1.4mm"/><svg:rect xmlns:svg="http://www.w3.org/2000/svg" x="7mm" y="2.8mm" width="1.4mm" height="1.4mm"/><svg:rect xmlns:svg="http://www.w3.org/2000/svg" x="8.4mm" y="2.8mm" width="1.4mm" height="1.4mm"/><svg:rect xmlns:svg="http://www.w3.org/2000/svg" x="9.8mm" y="2.8mm" width="1.4mm" height="1.4mm"/><svg:rect xmlns:svg="http://www.w3.org/2000/svg" x="11.2mm" y="2.8mm" width="1.4mm" height="1.4mm"/><svg:rect xmlns:svg="http://www.w3.org/2000/svg" x="15.4mm" y="2.8mm" width="1.4mm" height="1.4mm"/><svg:rect xmlns:svg="http://www.w3.org/2000/svg" x="18.2mm" y="2.8mm" width="1.4mm" height="1.4mm"/><svg:rect xmlns:svg="http://www.w3.org/2000/svg" x="19.6mm" y="2.8mm" width="1.4mm" height="1.4mm"/><svg:rect xmlns:svg="http://www.w3.org/2000/svg" x="23.8mm" y="2.8mm" width="1.4mm" height="1.4mm"/><svg:rect xmlns:svg="http://www.w3.org/2000/svg" x="26.6mm" y="2.8mm" width="1.4mm" height="1.4mm"/><svg:rect xmlns:svg="http://www.w3.org/2000/svg" x="28mm" y="2.8mm" width="1.4mm" height="1.4mm"/><svg:rect xmlns:svg="http://www.w3.org/2000/svg" x="29.4mm" y="2.8mm" width="1.4mm" height="1.4mm"/><svg:rect xmlns:svg="http://www.w3.org/2000/svg" x="30.8mm" y="2.8mm" width="1.4mm" height="1.4mm"/><svg:rect xmlns:svg="http://www.w3.org/2000/svg" x="33.6mm" y="2.8mm" width="1.4mm" height="1.4mm"/><svg:rect xmlns:svg="http://www.w3.org/2000/svg" x="35mm" y="2.8mm" width="1.4mm" height="1.4mm"/><svg:rect xmlns:svg="http://www.w3.org/2000/svg" x="36.4mm" y="2.8mm" width="1.4mm" height="1.4mm"/><svg:rect xmlns:svg="http://www.w3.org/2000/svg" x="37.8mm" y="2.8mm" width="1.4mm" height="1.4mm"/><svg:rect xmlns:svg="http://www.w3.org/2000/svg" x="39.2mm" y="2.8mm" width="1.4mm" height="1.4mm"/><svg:rect xmlns:svg="http://www.w3.org/2000/svg" x="40.6mm" y="2.8mm" width="1.4mm" height="1.4mm"/><svg:rect xmlns:svg="http://www.w3.org/2000/svg" x="42mm" y="2.8mm" width="1.4mm" height="1.4mm"/><svg:rect xmlns:svg="http://www.w3.org/2000/svg" x="2.8mm" y="4.2mm" width="1.4mm" height="1.4mm"/><svg:rect xmlns:svg="http://www.w3.org/2000/svg" x="11.2mm" y="4.2mm" width="1.4mm" height="1.4mm"/><svg:rect xmlns:svg="http://www.w3.org/2000/svg" x="15.4mm" y="4.2mm" width="1.4mm" height="1.4mm"/><svg:rect xmlns:svg="http://www.w3.org/2000/svg" x="16.8mm" y="4.2mm" width="1.4mm" height="1.4mm"/><svg:rect xmlns:svg="http://www.w3.org/2000/svg" x="18.2mm" y="4.2mm" width="1.4mm" height="1.4mm"/><svg:rect xmlns:svg="http://www.w3.org/2000/svg" x="21mm" y="4.2mm" width="1.4mm" height="1.4mm"/><svg:rect xmlns:svg="http://www.w3.org/2000/svg" x="23.8mm" y="4.2mm" width="1.4mm" height="1.4mm"/><svg:rect xmlns:svg="http://www.w3.org/2000/svg" x="28mm" y="4.2mm" width="1.4mm" height="1.4mm"/><svg:rect xmlns:svg="http://www.w3.org/2000/svg" x="33.6mm" y="4.2mm" width="1.4mm" height="1.4mm"/><svg:rect xmlns:svg="http://www.w3.org/2000/svg" x="42mm" y="4.2mm" width="1.4mm" height="1.4mm"/><svg:rect xmlns:svg="http://www.w3.org/2000/svg" x="2.8mm" y="5.6mm" width="1.4mm" height="1.4mm"/><svg:rect xmlns:svg="http://www.w3.org/2000/svg" x="5.6mm" y="5.6mm" width="1.4mm" height="1.4mm"/><svg:rect xmlns:svg="http://www.w3.org/2000/svg" x="7mm" y="5.6mm" width="1.4mm" height="1.4mm"/><svg:rect xmlns:svg="http://www.w3.org/2000/svg" x="8.4mm" y="5.6mm" width="1.4mm" height="1.4mm"/><svg:rect xmlns:svg="http://www.w3.org/2000/svg" x="11.2mm" y="5.6mm" width="1.4mm" height="1.4mm"/><svg:rect xmlns:svg="http://www.w3.org/2000/svg" x="19.6mm" y="5.6mm" width="1.4mm" height="1.4mm"/><svg:rect xmlns:svg="http://www.w3.org/2000/svg" x="25.2mm" y="5.6mm" width="1.4mm" height="1.4mm"/><svg:rect xmlns:svg="http://www.w3.org/2000/svg" x="26.6mm" y="5.6mm" width="1.4mm" height="1.4mm"/><svg:rect xmlns:svg="http://www.w3.org/2000/svg" x="28mm" y="5.6mm" width="1.4mm" height="1.4mm"/><svg:rect xmlns:svg="http://www.w3.org/2000/svg" x="29.4mm" y="5.6mm" width="1.4mm" height="1.4mm"/><svg:rect xmlns:svg="http://www.w3.org/2000/svg" x="33.6mm" y="5.6mm" width="1.4mm" height="1.4mm"/><svg:rect xmlns:svg="http://www.w3.org/2000/svg" x="36.4mm" y="5.6mm" width="1.4mm" height="1.4mm"/><svg:rect xmlns:svg="http://www.w3.org/2000/svg" x="37.8mm" y="5.6mm" width="1.4mm" height="1.4mm"/><svg:rect xmlns:svg="http://www.w3.org/2000/svg" x="39.2mm" y="5.6mm" width="1.4mm" height="1.4mm"/><svg:rect xmlns:svg="http://www.w3.org/2000/svg" x="42mm" y="5.6mm" width="1.4mm" height="1.4mm"/><svg:rect xmlns:svg="http://www.w3.org/2000/svg" x="2.8mm" y="7mm" width="1.4mm" height="1.4mm"/><svg:rect xmlns:svg="http://www.w3.org/2000/svg" x="5.6mm" y="7mm" width="1.4mm" height="1.4mm"/><svg:rect xmlns:svg="http://www.w3.org/2000/svg" x="7mm" y="7mm" width="1.4mm" height="1.4mm"/><svg:rect xmlns:svg="http://www.w3.org/2000/svg" x="8.4mm" y="7mm" width="1.4mm" height="1.4mm"/><svg:rect xmlns:svg="http://www.w3.org/2000/svg" x="11.2mm" y="7mm" width="1.4mm" height="1.4mm"/><svg:rect xmlns:svg="http://www.w3.org/2000/svg" x="15.4mm" y="7mm" width="1.4mm" height="1.4mm"/><svg:rect xmlns:svg="http://www.w3.org/2000/svg" x="18.2mm" y="7mm" width="1.4mm" height="1.4mm"/><svg:rect xmlns:svg="http://www.w3.org/2000/svg" x="19.6mm" y="7mm" width="1.4mm" height="1.4mm"/><svg:rect xmlns:svg="http://www.w3.org/2000/svg" x="22.4mm" y="7mm" width="1.4mm" height="1.4mm"/><svg:rect xmlns:svg="http://www.w3.org/2000/svg" x="23.8mm" y="7mm" width="1.4mm" height="1.4mm"/><svg:rect xmlns:svg="http://www.w3.org/2000/svg" x="28mm" y="7mm" width="1.4mm" height="1.4mm"/><svg:rect xmlns:svg="http://www.w3.org/2000/svg" x="29.4mm" y="7mm" width="1.4mm" height="1.4mm"/><svg:rect xmlns:svg="http://www.w3.org/2000/svg" x="33.6mm" y="7mm" width="1.4mm" height="1.4mm"/><svg:rect xmlns:svg="http://www.w3.org/2000/svg" x="36.4mm" y="7mm" width="1.4mm" height="1.4mm"/><svg:rect xmlns:svg="http://www.w3.org/2000/svg" x="37.8mm" y="7mm" width="1.4mm" height="1.4mm"/><svg:rect xmlns:svg="http://www.w3.org/2000/svg" x="39.2mm" y="7mm" width="1.4mm" height="1.4mm"/><svg:rect xmlns:svg="http://www.w3.org/2000/svg" x="42mm" y="7mm" width="1.4mm" height="1.4mm"/><svg:rect xmlns:svg="http://www.w3.org/2000/svg" x="2.8mm" y="8.4mm" width="1.4mm" height="1.4mm"/><svg:rect xmlns:svg="http://www.w3.org/2000/svg" x="5.6mm" y="8.4mm" width="1.4mm" height="1.4mm"/><svg:rect xmlns:svg="http://www.w3.org/2000/svg" x="7mm" y="8.4mm" width="1.4mm" height="1.4mm"/><svg:rect xmlns:svg="http://www.w3.org/2000/svg" x="8.4mm" y="8.4mm" width="1.4mm" height="1.4mm"/><svg:rect xmlns:svg="http://www.w3.org/2000/svg" x="11.2mm" y="8.4mm" width="1.4mm" height="1.4mm"/><svg:rect xmlns:svg="http://www.w3.org/2000/svg" x="16.8mm" y="8.4mm" width="1.4mm" height="1.4mm"/><svg:rect xmlns:svg="http://www.w3.org/2000/svg" x="18.2mm" y="8.4mm" width="1.4mm" height="1.4mm"/><svg:rect xmlns:svg="http://www.w3.org/2000/svg" x="19.6mm" y="8.4mm" width="1.4mm" height="1.4mm"/><svg:rect xmlns:svg="http://www.w3.org/2000/svg" x="21mm" y="8.4mm" width="1.4mm" height="1.4mm"/><svg:rect xmlns:svg="http://www.w3.org/2000/svg" x="22.4mm" y="8.4mm" width="1.4mm" height="1.4mm"/><svg:rect xmlns:svg="http://www.w3.org/2000/svg" x="23.8mm" y="8.4mm" width="1.4mm" height="1.4mm"/><svg:rect xmlns:svg="http://www.w3.org/2000/svg" x="25.2mm" y="8.4mm" width="1.4mm" height="1.4mm"/><svg:rect xmlns:svg="http://www.w3.org/2000/svg" x="26.6mm" y="8.4mm" width="1.4mm" height="1.4mm"/><svg:rect xmlns:svg="http://www.w3.org/2000/svg" x="28mm" y="8.4mm" width="1.4mm" height="1.4mm"/><svg:rect xmlns:svg="http://www.w3.org/2000/svg" x="33.6mm" y="8.4mm" width="1.4mm" height="1.4mm"/><svg:rect xmlns:svg="http://www.w3.org/2000/svg" x="36.4mm" y="8.4mm" width="1.4mm" height="1.4mm"/><svg:rect xmlns:svg="http://www.w3.org/2000/svg" x="37.8mm" y="8.4mm" width="1.4mm" height="1.4mm"/><svg:rect xmlns:svg="http://www.w3.org/2000/svg" x="39.2mm" y="8.4mm" width="1.4mm" height="1.4mm"/><svg:rect xmlns:svg="http://www.w3.org/2000/svg" x="42mm" y="8.4mm" width="1.4mm" height="1.4mm"/><svg:rect xmlns:svg="http://www.w3.org/2000/svg" x="2.8mm" y="9.8mm" width="1.4mm" height="1.4mm"/><svg:rect xmlns:svg="http://www.w3.org/2000/svg" x="11.2mm" y="9.8mm" width="1.4mm" height="1.4mm"/><svg:rect xmlns:svg="http://www.w3.org/2000/svg" x="14mm" y="9.8mm" width="1.4mm" height="1.4mm"/><svg:rect xmlns:svg="http://www.w3.org/2000/svg" x="16.8mm" y="9.8mm" width="1.4mm" height="1.4mm"/><svg:rect xmlns:svg="http://www.w3.org/2000/svg" x="18.2mm" y="9.8mm" width="1.4mm" height="1.4mm"/><svg:rect xmlns:svg="http://www.w3.org/2000/svg" x="19.6mm" y="9.8mm" width="1.4mm" height="1.4mm"/><svg:rect xmlns:svg="http://www.w3.org/2000/svg" x="21mm" y="9.8mm" width="1.4mm" height="1.4mm"/><svg:rect xmlns:svg="http://www.w3.org/2000/svg" x="23.8mm" y="9.8mm" width="1.4mm" height="1.4mm"/><svg:rect xmlns:svg="http://www.w3.org/2000/svg" x="25.2mm" y="9.8mm" width="1.4mm" height="1.4mm"/><svg:rect xmlns:svg="http://www.w3.org/2000/svg" x="29.4mm" y="9.8mm" width="1.4mm" height="1.4mm"/><svg:rect xmlns:svg="http://www.w3.org/2000/svg" x="33.6mm" y="9.8mm" width="1.4mm" height="1.4mm"/><svg:rect xmlns:svg="http://www.w3.org/2000/svg" x="42mm" y="9.8mm" width="1.4mm" height="1.4mm"/><svg:rect xmlns:svg="http://www.w3.org/2000/svg" x="2.8mm" y="11.2mm" width="1.4mm" height="1.4mm"/><svg:rect xmlns:svg="http://www.w3.org/2000/svg" x="4.2mm" y="11.2mm" width="1.4mm" height="1.4mm"/><svg:rect xmlns:svg="http://www.w3.org/2000/svg" x="5.6mm" y="11.2mm" width="1.4mm" height="1.4mm"/><svg:rect xmlns:svg="http://www.w3.org/2000/svg" x="7mm" y="11.2mm" width="1.4mm" height="1.4mm"/><svg:rect xmlns:svg="http://www.w3.org/2000/svg" x="8.4mm" y="11.2mm" width="1.4mm" height="1.4mm"/><svg:rect xmlns:svg="http://www.w3.org/2000/svg" x="9.8mm" y="11.2mm" width="1.4mm" height="1.4mm"/><svg:rect xmlns:svg="http://www.w3.org/2000/svg" x="11.2mm" y="11.2mm" width="1.4mm" height="1.4mm"/><svg:rect xmlns:svg="http://www.w3.org/2000/svg" x="14mm" y="11.2mm" width="1.4mm" height="1.4mm"/><svg:rect xmlns:svg="http://www.w3.org/2000/svg" x="16.8mm" y="11.2mm" width="1.4mm" height="1.4mm"/><svg:rect xmlns:svg="http://www.w3.org/2000/svg" x="19.6mm" y="11.2mm" width="1.4mm" height="1.4mm"/><svg:rect xmlns:svg="http://www.w3.org/2000/svg" x="22.4mm" y="11.2mm" width="1.4mm" height="1.4mm"/><svg:rect xmlns:svg="http://www.w3.org/2000/svg" x="25.2mm" y="11.2mm" width="1.4mm" height="1.4mm"/><svg:rect xmlns:svg="http://www.w3.org/2000/svg" x="28mm" y="11.2mm" width="1.4mm" height="1.4mm"/><svg:rect xmlns:svg="http://www.w3.org/2000/svg" x="30.8mm" y="11.2mm" width="1.4mm" height="1.4mm"/><svg:rect xmlns:svg="http://www.w3.org/2000/svg" x="33.6mm" y="11.2mm" width="1.4mm" height="1.4mm"/><svg:rect xmlns:svg="http://www.w3.org/2000/svg" x="35mm" y="11.2mm" width="1.4mm" height="1.4mm"/><svg:rect xmlns:svg="http://www.w3.org/2000/svg" x="36.4mm" y="11.2mm" width="1.4mm" height="1.4mm"/><svg:rect xmlns:svg="http://www.w3.org/2000/svg" x="37.8mm" y="11.2mm" width="1.4mm" height="1.4mm"/><svg:rect xmlns:svg="http://www.w3.org/2000/svg" x="39.2mm" y="11.2mm" width="1.4mm" height="1.4mm"/><svg:rect xmlns:svg="http://www.w3.org/2000/svg" x="40.6mm" y="11.2mm" width="1.4mm" height="1.4mm"/><svg:rect xmlns:svg="http://www.w3.org/2000/svg" x="42mm" y="11.2mm" width="1.4mm" height="1.4mm"/><svg:rect xmlns:svg="http://www.w3.org/2000/svg" x="16.8mm" y="12.6mm" width="1.4mm" height="1.4mm"/><svg:rect xmlns:svg="http://www.w3.org/2000/svg" x="18.2mm" y="12.6mm" width="1.4mm" height="1.4mm"/><svg:rect xmlns:svg="http://www.w3.org/2000/svg" x="19.6mm" y="12.6mm" width="1.4mm" height="1.4mm"/><svg:rect xmlns:svg="http://www.w3.org/2000/svg" x="25.2mm" y="12.6mm" width="1.4mm" height="1.4mm"/><svg:rect xmlns:svg="http://www.w3.org/2000/svg" x="26.6mm" y="12.6mm" width="1.4mm" height="1.4mm"/><svg:rect xmlns:svg="http://www.w3.org/2000/svg" x="28mm" y="12.6mm" width="1.4mm" height="1.4mm"/><svg:rect xmlns:svg="http://www.w3.org/2000/svg" x="30.8mm" y="12.6mm" width="1.4mm" height="1.4mm"/><svg:rect xmlns:svg="http://www.w3.org/2000/svg" x="2.8mm" y="14mm" width="1.4mm" height="1.4mm"/><svg:rect xmlns:svg="http://www.w3.org/2000/svg" x="7mm" y="14mm" width="1.4mm" height="1.4mm"/><svg:rect xmlns:svg="http://www.w3.org/2000/svg" x="9.8mm" y="14mm" width="1.4mm" height="1.4mm"/><svg:rect xmlns:svg="http://www.w3.org/2000/svg" x="11.2mm" y="14mm" width="1.4mm" height="1.4mm"/><svg:rect xmlns:svg="http://www.w3.org/2000/svg" x="14mm" y="14mm" width="1.4mm" height="1.4mm"/><svg:rect xmlns:svg="http://www.w3.org/2000/svg" x="15.4mm" y="14mm" width="1.4mm" height="1.4mm"/><svg:rect xmlns:svg="http://www.w3.org/2000/svg" x="21mm" y="14mm" width="1.4mm" height="1.4mm"/><svg:rect xmlns:svg="http://www.w3.org/2000/svg" x="25.2mm" y="14mm" width="1.4mm" height="1.4mm"/><svg:rect xmlns:svg="http://www.w3.org/2000/svg" x="30.8mm" y="14mm" width="1.4mm" height="1.4mm"/><svg:rect xmlns:svg="http://www.w3.org/2000/svg" x="32.2mm" y="14mm" width="1.4mm" height="1.4mm"/><svg:rect xmlns:svg="http://www.w3.org/2000/svg" x="35mm" y="14mm" width="1.4mm" height="1.4mm"/><svg:rect xmlns:svg="http://www.w3.org/2000/svg" x="2.8mm" y="15.4mm" width="1.4mm" height="1.4mm"/><svg:rect xmlns:svg="http://www.w3.org/2000/svg" x="5.6mm" y="15.4mm" width="1.4mm" height="1.4mm"/><svg:rect xmlns:svg="http://www.w3.org/2000/svg" x="7mm" y="15.4mm" width="1.4mm" height="1.4mm"/><svg:rect xmlns:svg="http://www.w3.org/2000/svg" x="9.8mm" y="15.4mm" width="1.4mm" height="1.4mm"/><svg:rect xmlns:svg="http://www.w3.org/2000/svg" x="14mm" y="15.4mm" width="1.4mm" height="1.4mm"/><svg:rect xmlns:svg="http://www.w3.org/2000/svg" x="25.2mm" y="15.4mm" width="1.4mm" height="1.4mm"/><svg:rect xmlns:svg="http://www.w3.org/2000/svg" x="30.8mm" y="15.4mm" width="1.4mm" height="1.4mm"/><svg:rect xmlns:svg="http://www.w3.org/2000/svg" x="32.2mm" y="15.4mm" width="1.4mm" height="1.4mm"/><svg:rect xmlns:svg="http://www.w3.org/2000/svg" x="33.6mm" y="15.4mm" width="1.4mm" height="1.4mm"/><svg:rect xmlns:svg="http://www.w3.org/2000/svg" x="37.8mm" y="15.4mm" width="1.4mm" height="1.4mm"/><svg:rect xmlns:svg="http://www.w3.org/2000/svg" x="42mm" y="15.4mm" width="1.4mm" height="1.4mm"/><svg:rect xmlns:svg="http://www.w3.org/2000/svg" x="2.8mm" y="16.8mm" width="1.4mm" height="1.4mm"/><svg:rect xmlns:svg="http://www.w3.org/2000/svg" x="4.2mm" y="16.8mm" width="1.4mm" height="1.4mm"/><svg:rect xmlns:svg="http://www.w3.org/2000/svg" x="7mm" y="16.8mm" width="1.4mm" height="1.4mm"/><svg:rect xmlns:svg="http://www.w3.org/2000/svg" x="8.4mm" y="16.8mm" width="1.4mm" height="1.4mm"/><svg:rect xmlns:svg="http://www.w3.org/2000/svg" x="11.2mm" y="16.8mm" width="1.4mm" height="1.4mm"/><svg:rect xmlns:svg="http://www.w3.org/2000/svg" x="12.6mm" y="16.8mm" width="1.4mm" height="1.4mm"/><svg:rect xmlns:svg="http://www.w3.org/2000/svg" x="15.4mm" y="16.8mm" width="1.4mm" height="1.4mm"/><svg:rect xmlns:svg="http://www.w3.org/2000/svg" x="18.2mm" y="16.8mm" width="1.4mm" height="1.4mm"/><svg:rect xmlns:svg="http://www.w3.org/2000/svg" x="19.6mm" y="16.8mm" width="1.4mm" height="1.4mm"/><svg:rect xmlns:svg="http://www.w3.org/2000/svg" x="25.2mm" y="16.8mm" width="1.4mm" height="1.4mm"/><svg:rect xmlns:svg="http://www.w3.org/2000/svg" x="26.6mm" y="16.8mm" width="1.4mm" height="1.4mm"/><svg:rect xmlns:svg="http://www.w3.org/2000/svg" x="29.4mm" y="16.8mm" width="1.4mm" height="1.4mm"/><svg:rect xmlns:svg="http://www.w3.org/2000/svg" x="30.8mm" y="16.8mm" width="1.4mm" height="1.4mm"/><svg:rect xmlns:svg="http://www.w3.org/2000/svg" x="32.2mm" y="16.8mm" width="1.4mm" height="1.4mm"/><svg:rect xmlns:svg="http://www.w3.org/2000/svg" x="37.8mm" y="16.8mm" width="1.4mm" height="1.4mm"/><svg:rect xmlns:svg="http://www.w3.org/2000/svg" x="39.2mm" y="16.8mm" width="1.4mm" height="1.4mm"/><svg:rect xmlns:svg="http://www.w3.org/2000/svg" x="40.6mm" y="16.8mm" width="1.4mm" height="1.4mm"/><svg:rect xmlns:svg="http://www.w3.org/2000/svg" x="2.8mm" y="18.2mm" width="1.4mm" height="1.4mm"/><svg:rect xmlns:svg="http://www.w3.org/2000/svg" x="4.2mm" y="18.2mm" width="1.4mm" height="1.4mm"/><svg:rect xmlns:svg="http://www.w3.org/2000/svg" x="5.6mm" y="18.2mm" width="1.4mm" height="1.4mm"/><svg:rect xmlns:svg="http://www.w3.org/2000/svg" x="7mm" y="18.2mm" width="1.4mm" height="1.4mm"/><svg:rect xmlns:svg="http://www.w3.org/2000/svg" x="9.8mm" y="18.2mm" width="1.4mm" height="1.4mm"/><svg:rect xmlns:svg="http://www.w3.org/2000/svg" x="14mm" y="18.2mm" width="1.4mm" height="1.4mm"/><svg:rect xmlns:svg="http://www.w3.org/2000/svg" x="15.4mm" y="18.2mm" width="1.4mm" height="1.4mm"/><svg:rect xmlns:svg="http://www.w3.org/2000/svg" x="16.8mm" y="18.2mm" width="1.4mm" height="1.4mm"/><svg:rect xmlns:svg="http://www.w3.org/2000/svg" x="19.6mm" y="18.2mm" width="1.4mm" height="1.4mm"/><svg:rect xmlns:svg="http://www.w3.org/2000/svg" x="21mm" y="18.2mm" width="1.4mm" height="1.4mm"/><svg:rect xmlns:svg="http://www.w3.org/2000/svg" x="23.8mm" y="18.2mm" width="1.4mm" height="1.4mm"/><svg:rect xmlns:svg="http://www.w3.org/2000/svg" x="25.2mm" y="18.2mm" width="1.4mm" height="1.4mm"/><svg:rect xmlns:svg="http://www.w3.org/2000/svg" x="28mm" y="18.2mm" width="1.4mm" height="1.4mm"/><svg:rect xmlns:svg="http://www.w3.org/2000/svg" x="29.4mm" y="18.2mm" width="1.4mm" height="1.4mm"/><svg:rect xmlns:svg="http://www.w3.org/2000/svg" x="30.8mm" y="18.2mm" width="1.4mm" height="1.4mm"/><svg:rect xmlns:svg="http://www.w3.org/2000/svg" x="32.2mm" y="18.2mm" width="1.4mm" height="1.4mm"/><svg:rect xmlns:svg="http://www.w3.org/2000/svg" x="35mm" y="18.2mm" width="1.4mm" height="1.4mm"/><svg:rect xmlns:svg="http://www.w3.org/2000/svg" x="36.4mm" y="18.2mm" width="1.4mm" height="1.4mm"/><svg:rect xmlns:svg="http://www.w3.org/2000/svg" x="39.2mm" y="18.2mm" width="1.4mm" height="1.4mm"/><svg:rect xmlns:svg="http://www.w3.org/2000/svg" x="40.6mm" y="18.2mm" width="1.4mm" height="1.4mm"/><svg:rect xmlns:svg="http://www.w3.org/2000/svg" x="2.8mm" y="19.6mm" width="1.4mm" height="1.4mm"/><svg:rect xmlns:svg="http://www.w3.org/2000/svg" x="4.2mm" y="19.6mm" width="1.4mm" height="1.4mm"/><svg:rect xmlns:svg="http://www.w3.org/2000/svg" x="7mm" y="19.6mm" width="1.4mm" height="1.4mm"/><svg:rect xmlns:svg="http://www.w3.org/2000/svg" x="8.4mm" y="19.6mm" width="1.4mm" height="1.4mm"/><svg:rect xmlns:svg="http://www.w3.org/2000/svg" x="9.8mm" y="19.6mm" width="1.4mm" height="1.4mm"/><svg:rect xmlns:svg="http://www.w3.org/2000/svg" x="11.2mm" y="19.6mm" width="1.4mm" height="1.4mm"/><svg:rect xmlns:svg="http://www.w3.org/2000/svg" x="14mm" y="19.6mm" width="1.4mm" height="1.4mm"/><svg:rect xmlns:svg="http://www.w3.org/2000/svg" x="15.4mm" y="19.6mm" width="1.4mm" height="1.4mm"/><svg:rect xmlns:svg="http://www.w3.org/2000/svg" x="18.2mm" y="19.6mm" width="1.4mm" height="1.4mm"/><svg:rect xmlns:svg="http://www.w3.org/2000/svg" x="22.4mm" y="19.6mm" width="1.4mm" height="1.4mm"/><svg:rect xmlns:svg="http://www.w3.org/2000/svg" x="23.8mm" y="19.6mm" width="1.4mm" height="1.4mm"/><svg:rect xmlns:svg="http://www.w3.org/2000/svg" x="25.2mm" y="19.6mm" width="1.4mm" height="1.4mm"/><svg:rect xmlns:svg="http://www.w3.org/2000/svg" x="26.6mm" y="19.6mm" width="1.4mm" height="1.4mm"/><svg:rect xmlns:svg="http://www.w3.org/2000/svg" x="28mm" y="19.6mm" width="1.4mm" height="1.4mm"/><svg:rect xmlns:svg="http://www.w3.org/2000/svg" x="29.4mm" y="19.6mm" width="1.4mm" height="1.4mm"/><svg:rect xmlns:svg="http://www.w3.org/2000/svg" x="30.8mm" y="19.6mm" width="1.4mm" height="1.4mm"/><svg:rect xmlns:svg="http://www.w3.org/2000/svg" x="32.2mm" y="19.6mm" width="1.4mm" height="1.4mm"/><svg:rect xmlns:svg="http://www.w3.org/2000/svg" x="33.6mm" y="19.6mm" width="1.4mm" height="1.4mm"/><svg:rect xmlns:svg="http://www.w3.org/2000/svg" x="37.8mm" y="19.6mm" width="1.4mm" height="1.4mm"/><svg:rect xmlns:svg="http://www.w3.org/2000/svg" x="40.6mm" y="19.6mm" width="1.4mm" height="1.4mm"/><svg:rect xmlns:svg="http://www.w3.org/2000/svg" x="42mm" y="19.6mm" width="1.4mm" height="1.4mm"/><svg:rect xmlns:svg="http://www.w3.org/2000/svg" x="7mm" y="21mm" width="1.4mm" height="1.4mm"/><svg:rect xmlns:svg="http://www.w3.org/2000/svg" x="15.4mm" y="21mm" width="1.4mm" height="1.4mm"/><svg:rect xmlns:svg="http://www.w3.org/2000/svg" x="16.8mm" y="21mm" width="1.4mm" height="1.4mm"/><svg:rect xmlns:svg="http://www.w3.org/2000/svg" x="18.2mm" y="21mm" width="1.4mm" height="1.4mm"/><svg:rect xmlns:svg="http://www.w3.org/2000/svg" x="19.6mm" y="21mm" width="1.4mm" height="1.4mm"/><svg:rect xmlns:svg="http://www.w3.org/2000/svg" x="21mm" y="21mm" width="1.4mm" height="1.4mm"/><svg:rect xmlns:svg="http://www.w3.org/2000/svg" x="25.2mm" y="21mm" width="1.4mm" height="1.4mm"/><svg:rect xmlns:svg="http://www.w3.org/2000/svg" x="29.4mm" y="21mm" width="1.4mm" height="1.4mm"/><svg:rect xmlns:svg="http://www.w3.org/2000/svg" x="30.8mm" y="21mm" width="1.4mm" height="1.4mm"/><svg:rect xmlns:svg="http://www.w3.org/2000/svg" x="7mm" y="22.4mm" width="1.4mm" height="1.4mm"/><svg:rect xmlns:svg="http://www.w3.org/2000/svg" x="9.8mm" y="22.4mm" width="1.4mm" height="1.4mm"/><svg:rect xmlns:svg="http://www.w3.org/2000/svg" x="11.2mm" y="22.4mm" width="1.4mm" height="1.4mm"/><svg:rect xmlns:svg="http://www.w3.org/2000/svg" x="12.6mm" y="22.4mm" width="1.4mm" height="1.4mm"/><svg:rect xmlns:svg="http://www.w3.org/2000/svg" x="14mm" y="22.4mm" width="1.4mm" height="1.4mm"/><svg:rect xmlns:svg="http://www.w3.org/2000/svg" x="19.6mm" y="22.4mm" width="1.4mm" height="1.4mm"/><svg:rect xmlns:svg="http://www.w3.org/2000/svg" x="21mm" y="22.4mm" width="1.4mm" height="1.4mm"/><svg:rect xmlns:svg="http://www.w3.org/2000/svg" x="22.4mm" y="22.4mm" width="1.4mm" height="1.4mm"/><svg:rect xmlns:svg="http://www.w3.org/2000/svg" x="36.4mm" y="22.4mm" width="1.4mm" height="1.4mm"/><svg:rect xmlns:svg="http://www.w3.org/2000/svg" x="37.8mm" y="22.4mm" width="1.4mm" height="1.4mm"/><svg:rect xmlns:svg="http://www.w3.org/2000/svg" x="39.2mm" y="22.4mm" width="1.4mm" height="1.4mm"/><svg:rect xmlns:svg="http://www.w3.org/2000/svg" x="40.6mm" y="22.4mm" width="1.4mm" height="1.4mm"/><svg:rect xmlns:svg="http://www.w3.org/2000/svg" x="42mm" y="22.4mm" width="1.4mm" height="1.4mm"/><svg:rect xmlns:svg="http://www.w3.org/2000/svg" x="4.2mm" y="23.8mm" width="1.4mm" height="1.4mm"/><svg:rect xmlns:svg="http://www.w3.org/2000/svg" x="8.4mm" y="23.8mm" width="1.4mm" height="1.4mm"/><svg:rect xmlns:svg="http://www.w3.org/2000/svg" x="9.8mm" y="23.8mm" width="1.4mm" height="1.4mm"/><svg:rect xmlns:svg="http://www.w3.org/2000/svg" x="14mm" y="23.8mm" width="1.4mm" height="1.4mm"/><svg:rect xmlns:svg="http://www.w3.org/2000/svg" x="15.4mm" y="23.8mm" width="1.4mm" height="1.4mm"/><svg:rect xmlns:svg="http://www.w3.org/2000/svg" x="16.8mm" y="23.8mm" width="1.4mm" height="1.4mm"/><svg:rect xmlns:svg="http://www.w3.org/2000/svg" x="19.6mm" y="23.8mm" width="1.4mm" height="1.4mm"/><svg:rect xmlns:svg="http://www.w3.org/2000/svg" x="25.2mm" y="23.8mm" width="1.4mm" height="1.4mm"/><svg:rect xmlns:svg="http://www.w3.org/2000/svg" x="26.6mm" y="23.8mm" width="1.4mm" height="1.4mm"/><svg:rect xmlns:svg="http://www.w3.org/2000/svg" x="28mm" y="23.8mm" width="1.4mm" height="1.4mm"/><svg:rect xmlns:svg="http://www.w3.org/2000/svg" x="29.4mm" y="23.8mm" width="1.4mm" height="1.4mm"/><svg:rect xmlns:svg="http://www.w3.org/2000/svg" x="30.8mm" y="23.8mm" width="1.4mm" height="1.4mm"/><svg:rect xmlns:svg="http://www.w3.org/2000/svg" x="35mm" y="23.8mm" width="1.4mm" height="1.4mm"/><svg:rect xmlns:svg="http://www.w3.org/2000/svg" x="37.8mm" y="23.8mm" width="1.4mm" height="1.4mm"/><svg:rect xmlns:svg="http://www.w3.org/2000/svg" x="40.6mm" y="23.8mm" width="1.4mm" height="1.4mm"/><svg:rect xmlns:svg="http://www.w3.org/2000/svg" x="2.8mm" y="25.2mm" width="1.4mm" height="1.4mm"/><svg:rect xmlns:svg="http://www.w3.org/2000/svg" x="8.4mm" y="25.2mm" width="1.4mm" height="1.4mm"/><svg:rect xmlns:svg="http://www.w3.org/2000/svg" x="9.8mm" y="25.2mm" width="1.4mm" height="1.4mm"/><svg:rect xmlns:svg="http://www.w3.org/2000/svg" x="11.2mm" y="25.2mm" width="1.4mm" height="1.4mm"/><svg:rect xmlns:svg="http://www.w3.org/2000/svg" x="12.6mm" y="25.2mm" width="1.4mm" height="1.4mm"/><svg:rect xmlns:svg="http://www.w3.org/2000/svg" x="15.4mm" y="25.2mm" width="1.4mm" height="1.4mm"/><svg:rect xmlns:svg="http://www.w3.org/2000/svg" x="18.2mm" y="25.2mm" width="1.4mm" height="1.4mm"/><svg:rect xmlns:svg="http://www.w3.org/2000/svg" x="21mm" y="25.2mm" width="1.4mm" height="1.4mm"/><svg:rect xmlns:svg="http://www.w3.org/2000/svg" x="26.6mm" y="25.2mm" width="1.4mm" height="1.4mm"/><svg:rect xmlns:svg="http://www.w3.org/2000/svg" x="29.4mm" y="25.2mm" width="1.4mm" height="1.4mm"/><svg:rect xmlns:svg="http://www.w3.org/2000/svg" x="32.2mm" y="25.2mm" width="1.4mm" height="1.4mm"/><svg:rect xmlns:svg="http://www.w3.org/2000/svg" x="40.6mm" y="25.2mm" width="1.4mm" height="1.4mm"/><svg:rect xmlns:svg="http://www.w3.org/2000/svg" x="4.2mm" y="26.6mm" width="1.4mm" height="1.4mm"/><svg:rect xmlns:svg="http://www.w3.org/2000/svg" x="5.6mm" y="26.6mm" width="1.4mm" height="1.4mm"/><svg:rect xmlns:svg="http://www.w3.org/2000/svg" x="7mm" y="26.6mm" width="1.4mm" height="1.4mm"/><svg:rect xmlns:svg="http://www.w3.org/2000/svg" x="8.4mm" y="26.6mm" width="1.4mm" height="1.4mm"/><svg:rect xmlns:svg="http://www.w3.org/2000/svg" x="9.8mm" y="26.6mm" width="1.4mm" height="1.4mm"/><svg:rect xmlns:svg="http://www.w3.org/2000/svg" x="18.2mm" y="26.6mm" width="1.4mm" height="1.4mm"/><svg:rect xmlns:svg="http://www.w3.org/2000/svg" x="21mm" y="26.6mm" width="1.4mm" height="1.4mm"/><svg:rect xmlns:svg="http://www.w3.org/2000/svg" x="22.4mm" y="26.6mm" width="1.4mm" height="1.4mm"/><svg:rect xmlns:svg="http://www.w3.org/2000/svg" x="25.2mm" y="26.6mm" width="1.4mm" height="1.4mm"/><svg:rect xmlns:svg="http://www.w3.org/2000/svg" x="28mm" y="26.6mm" width="1.4mm" height="1.4mm"/><svg:rect xmlns:svg="http://www.w3.org/2000/svg" x="32.2mm" y="26.6mm" width="1.4mm" height="1.4mm"/><svg:rect xmlns:svg="http://www.w3.org/2000/svg" x="33.6mm" y="26.6mm" width="1.4mm" height="1.4mm"/><svg:rect xmlns:svg="http://www.w3.org/2000/svg" x="35mm" y="26.6mm" width="1.4mm" height="1.4mm"/><svg:rect xmlns:svg="http://www.w3.org/2000/svg" x="37.8mm" y="26.6mm" width="1.4mm" height="1.4mm"/><svg:rect xmlns:svg="http://www.w3.org/2000/svg" x="42mm" y="26.6mm" width="1.4mm" height="1.4mm"/><svg:rect xmlns:svg="http://www.w3.org/2000/svg" x="2.8mm" y="28mm" width="1.4mm" height="1.4mm"/><svg:rect xmlns:svg="http://www.w3.org/2000/svg" x="5.6mm" y="28mm" width="1.4mm" height="1.4mm"/><svg:rect xmlns:svg="http://www.w3.org/2000/svg" x="7mm" y="28mm" width="1.4mm" height="1.4mm"/><svg:rect xmlns:svg="http://www.w3.org/2000/svg" x="9.8mm" y="28mm" width="1.4mm" height="1.4mm"/><svg:rect xmlns:svg="http://www.w3.org/2000/svg" x="11.2mm" y="28mm" width="1.4mm" height="1.4mm"/><svg:rect xmlns:svg="http://www.w3.org/2000/svg" x="19.6mm" y="28mm" width="1.4mm" height="1.4mm"/><svg:rect xmlns:svg="http://www.w3.org/2000/svg" x="22.4mm" y="28mm" width="1.4mm" height="1.4mm"/><svg:rect xmlns:svg="http://www.w3.org/2000/svg" x="25.2mm" y="28mm" width="1.4mm" height="1.4mm"/><svg:rect xmlns:svg="http://www.w3.org/2000/svg" x="26.6mm" y="28mm" width="1.4mm" height="1.4mm"/><svg:rect xmlns:svg="http://www.w3.org/2000/svg" x="35mm" y="28mm" width="1.4mm" height="1.4mm"/><svg:rect xmlns:svg="http://www.w3.org/2000/svg" x="40.6mm" y="28mm" width="1.4mm" height="1.4mm"/><svg:rect xmlns:svg="http://www.w3.org/2000/svg" x="42mm" y="28mm" width="1.4mm" height="1.4mm"/><svg:rect xmlns:svg="http://www.w3.org/2000/svg" x="5.6mm" y="29.4mm" width="1.4mm" height="1.4mm"/><svg:rect xmlns:svg="http://www.w3.org/2000/svg" x="9.8mm" y="29.4mm" width="1.4mm" height="1.4mm"/><svg:rect xmlns:svg="http://www.w3.org/2000/svg" x="18.2mm" y="29.4mm" width="1.4mm" height="1.4mm"/><svg:rect xmlns:svg="http://www.w3.org/2000/svg" x="22.4mm" y="29.4mm" width="1.4mm" height="1.4mm"/><svg:rect xmlns:svg="http://www.w3.org/2000/svg" x="26.6mm" y="29.4mm" width="1.4mm" height="1.4mm"/><svg:rect xmlns:svg="http://www.w3.org/2000/svg" x="28mm" y="29.4mm" width="1.4mm" height="1.4mm"/><svg:rect xmlns:svg="http://www.w3.org/2000/svg" x="32.2mm" y="29.4mm" width="1.4mm" height="1.4mm"/><svg:rect xmlns:svg="http://www.w3.org/2000/svg" x="35mm" y="29.4mm" width="1.4mm" height="1.4mm"/><svg:rect xmlns:svg="http://www.w3.org/2000/svg" x="40.6mm" y="29.4mm" width="1.4mm" height="1.4mm"/><svg:rect xmlns:svg="http://www.w3.org/2000/svg" x="42mm" y="29.4mm" width="1.4mm" height="1.4mm"/><svg:rect xmlns:svg="http://www.w3.org/2000/svg" x="2.8mm" y="30.8mm" width="1.4mm" height="1.4mm"/><svg:rect xmlns:svg="http://www.w3.org/2000/svg" x="5.6mm" y="30.8mm" width="1.4mm" height="1.4mm"/><svg:rect xmlns:svg="http://www.w3.org/2000/svg" x="7mm" y="30.8mm" width="1.4mm" height="1.4mm"/><svg:rect xmlns:svg="http://www.w3.org/2000/svg" x="11.2mm" y="30.8mm" width="1.4mm" height="1.4mm"/><svg:rect xmlns:svg="http://www.w3.org/2000/svg" x="12.6mm" y="30.8mm" width="1.4mm" height="1.4mm"/><svg:rect xmlns:svg="http://www.w3.org/2000/svg" x="15.4mm" y="30.8mm" width="1.4mm" height="1.4mm"/><svg:rect xmlns:svg="http://www.w3.org/2000/svg" x="18.2mm" y="30.8mm" width="1.4mm" height="1.4mm"/><svg:rect xmlns:svg="http://www.w3.org/2000/svg" x="19.6mm" y="30.8mm" width="1.4mm" height="1.4mm"/><svg:rect xmlns:svg="http://www.w3.org/2000/svg" x="23.8mm" y="30.8mm" width="1.4mm" height="1.4mm"/><svg:rect xmlns:svg="http://www.w3.org/2000/svg" x="25.2mm" y="30.8mm" width="1.4mm" height="1.4mm"/><svg:rect xmlns:svg="http://www.w3.org/2000/svg" x="29.4mm" y="30.8mm" width="1.4mm" height="1.4mm"/><svg:rect xmlns:svg="http://www.w3.org/2000/svg" x="30.8mm" y="30.8mm" width="1.4mm" height="1.4mm"/><svg:rect xmlns:svg="http://www.w3.org/2000/svg" x="32.2mm" y="30.8mm" width="1.4mm" height="1.4mm"/><svg:rect xmlns:svg="http://www.w3.org/2000/svg" x="33.6mm" y="30.8mm" width="1.4mm" height="1.4mm"/><svg:rect xmlns:svg="http://www.w3.org/2000/svg" x="35mm" y="30.8mm" width="1.4mm" height="1.4mm"/><svg:rect xmlns:svg="http://www.w3.org/2000/svg" x="36.4mm" y="30.8mm" width="1.4mm" height="1.4mm"/><svg:rect xmlns:svg="http://www.w3.org/2000/svg" x="39.2mm" y="30.8mm" width="1.4mm" height="1.4mm"/><svg:rect xmlns:svg="http://www.w3.org/2000/svg" x="14mm" y="32.2mm" width="1.4mm" height="1.4mm"/><svg:rect xmlns:svg="http://www.w3.org/2000/svg" x="15.4mm" y="32.2mm" width="1.4mm" height="1.4mm"/><svg:rect xmlns:svg="http://www.w3.org/2000/svg" x="22.4mm" y="32.2mm" width="1.4mm" height="1.4mm"/><svg:rect xmlns:svg="http://www.w3.org/2000/svg" x="25.2mm" y="32.2mm" width="1.4mm" height="1.4mm"/><svg:rect xmlns:svg="http://www.w3.org/2000/svg" x="26.6mm" y="32.2mm" width="1.4mm" height="1.4mm"/><svg:rect xmlns:svg="http://www.w3.org/2000/svg" x="29.4mm" y="32.2mm" width="1.4mm" height="1.4mm"/><svg:rect xmlns:svg="http://www.w3.org/2000/svg" x="30.8mm" y="32.2mm" width="1.4mm" height="1.4mm"/><svg:rect xmlns:svg="http://www.w3.org/2000/svg" x="36.4mm" y="32.2mm" width="1.4mm" height="1.4mm"/><svg:rect xmlns:svg="http://www.w3.org/2000/svg" x="39.2mm" y="32.2mm" width="1.4mm" height="1.4mm"/><svg:rect xmlns:svg="http://www.w3.org/2000/svg" x="40.6mm" y="32.2mm" width="1.4mm" height="1.4mm"/><svg:rect xmlns:svg="http://www.w3.org/2000/svg" x="42mm" y="32.2mm" width="1.4mm" height="1.4mm"/><svg:rect xmlns:svg="http://www.w3.org/2000/svg" x="2.8mm" y="33.6mm" width="1.4mm" height="1.4mm"/><svg:rect xmlns:svg="http://www.w3.org/2000/svg" x="4.2mm" y="33.6mm" width="1.4mm" height="1.4mm"/><svg:rect xmlns:svg="http://www.w3.org/2000/svg" x="5.6mm" y="33.6mm" width="1.4mm" height="1.4mm"/><svg:rect xmlns:svg="http://www.w3.org/2000/svg" x="7mm" y="33.6mm" width="1.4mm" height="1.4mm"/><svg:rect xmlns:svg="http://www.w3.org/2000/svg" x="8.4mm" y="33.6mm" width="1.4mm" height="1.4mm"/><svg:rect xmlns:svg="http://www.w3.org/2000/svg" x="9.8mm" y="33.6mm" width="1.4mm" height="1.4mm"/><svg:rect xmlns:svg="http://www.w3.org/2000/svg" x="11.2mm" y="33.6mm" width="1.4mm" height="1.4mm"/><svg:rect xmlns:svg="http://www.w3.org/2000/svg" x="15.4mm" y="33.6mm" width="1.4mm" height="1.4mm"/><svg:rect xmlns:svg="http://www.w3.org/2000/svg" x="18.2mm" y="33.6mm" width="1.4mm" height="1.4mm"/><svg:rect xmlns:svg="http://www.w3.org/2000/svg" x="25.2mm" y="33.6mm" width="1.4mm" height="1.4mm"/><svg:rect xmlns:svg="http://www.w3.org/2000/svg" x="30.8mm" y="33.6mm" width="1.4mm" height="1.4mm"/><svg:rect xmlns:svg="http://www.w3.org/2000/svg" x="33.6mm" y="33.6mm" width="1.4mm" height="1.4mm"/><svg:rect xmlns:svg="http://www.w3.org/2000/svg" x="36.4mm" y="33.6mm" width="1.4mm" height="1.4mm"/><svg:rect xmlns:svg="http://www.w3.org/2000/svg" x="40.6mm" y="33.6mm" width="1.4mm" height="1.4mm"/><svg:rect xmlns:svg="http://www.w3.org/2000/svg" x="2.8mm" y="35mm" width="1.4mm" height="1.4mm"/><svg:rect xmlns:svg="http://www.w3.org/2000/svg" x="11.2mm" y="35mm" width="1.4mm" height="1.4mm"/><svg:rect xmlns:svg="http://www.w3.org/2000/svg" x="14mm" y="35mm" width="1.4mm" height="1.4mm"/><svg:rect xmlns:svg="http://www.w3.org/2000/svg" x="16.8mm" y="35mm" width="1.4mm" height="1.4mm"/><svg:rect xmlns:svg="http://www.w3.org/2000/svg" x="18.2mm" y="35mm" width="1.4mm" height="1.4mm"/><svg:rect xmlns:svg="http://www.w3.org/2000/svg" x="22.4mm" y="35mm" width="1.4mm" height="1.4mm"/><svg:rect xmlns:svg="http://www.w3.org/2000/svg" x="23.8mm" y="35mm" width="1.4mm" height="1.4mm"/><svg:rect xmlns:svg="http://www.w3.org/2000/svg" x="28mm" y="35mm" width="1.4mm" height="1.4mm"/><svg:rect xmlns:svg="http://www.w3.org/2000/svg" x="30.8mm" y="35mm" width="1.4mm" height="1.4mm"/><svg:rect xmlns:svg="http://www.w3.org/2000/svg" x="36.4mm" y="35mm" width="1.4mm" height="1.4mm"/><svg:rect xmlns:svg="http://www.w3.org/2000/svg" x="37.8mm" y="35mm" width="1.4mm" height="1.4mm"/><svg:rect xmlns:svg="http://www.w3.org/2000/svg" x="39.2mm" y="35mm" width="1.4mm" height="1.4mm"/><svg:rect xmlns:svg="http://www.w3.org/2000/svg" x="42mm" y="35mm" width="1.4mm" height="1.4mm"/><svg:rect xmlns:svg="http://www.w3.org/2000/svg" x="2.8mm" y="36.4mm" width="1.4mm" height="1.4mm"/><svg:rect xmlns:svg="http://www.w3.org/2000/svg" x="5.6mm" y="36.4mm" width="1.4mm" height="1.4mm"/><svg:rect xmlns:svg="http://www.w3.org/2000/svg" x="7mm" y="36.4mm" width="1.4mm" height="1.4mm"/><svg:rect xmlns:svg="http://www.w3.org/2000/svg" x="8.4mm" y="36.4mm" width="1.4mm" height="1.4mm"/><svg:rect xmlns:svg="http://www.w3.org/2000/svg" x="11.2mm" y="36.4mm" width="1.4mm" height="1.4mm"/><svg:rect xmlns:svg="http://www.w3.org/2000/svg" x="15.4mm" y="36.4mm" width="1.4mm" height="1.4mm"/><svg:rect xmlns:svg="http://www.w3.org/2000/svg" x="18.2mm" y="36.4mm" width="1.4mm" height="1.4mm"/><svg:rect xmlns:svg="http://www.w3.org/2000/svg" x="19.6mm" y="36.4mm" width="1.4mm" height="1.4mm"/><svg:rect xmlns:svg="http://www.w3.org/2000/svg" x="23.8mm" y="36.4mm" width="1.4mm" height="1.4mm"/><svg:rect xmlns:svg="http://www.w3.org/2000/svg" x="25.2mm" y="36.4mm" width="1.4mm" height="1.4mm"/><svg:rect xmlns:svg="http://www.w3.org/2000/svg" x="26.6mm" y="36.4mm" width="1.4mm" height="1.4mm"/><svg:rect xmlns:svg="http://www.w3.org/2000/svg" x="30.8mm" y="36.4mm" width="1.4mm" height="1.4mm"/><svg:rect xmlns:svg="http://www.w3.org/2000/svg" x="32.2mm" y="36.4mm" width="1.4mm" height="1.4mm"/><svg:rect xmlns:svg="http://www.w3.org/2000/svg" x="33.6mm" y="36.4mm" width="1.4mm" height="1.4mm"/><svg:rect xmlns:svg="http://www.w3.org/2000/svg" x="35mm" y="36.4mm" width="1.4mm" height="1.4mm"/><svg:rect xmlns:svg="http://www.w3.org/2000/svg" x="36.4mm" y="36.4mm" width="1.4mm" height="1.4mm"/><svg:rect xmlns:svg="http://www.w3.org/2000/svg" x="40.6mm" y="36.4mm" width="1.4mm" height="1.4mm"/><svg:rect xmlns:svg="http://www.w3.org/2000/svg" x="42mm" y="36.4mm" width="1.4mm" height="1.4mm"/><svg:rect xmlns:svg="http://www.w3.org/2000/svg" x="2.8mm" y="37.8mm" width="1.4mm" height="1.4mm"/><svg:rect xmlns:svg="http://www.w3.org/2000/svg" x="5.6mm" y="37.8mm" width="1.4mm" height="1.4mm"/><svg:rect xmlns:svg="http://www.w3.org/2000/svg" x="7mm" y="37.8mm" width="1.4mm" height="1.4mm"/><svg:rect xmlns:svg="http://www.w3.org/2000/svg" x="8.4mm" y="37.8mm" width="1.4mm" height="1.4mm"/><svg:rect xmlns:svg="http://www.w3.org/2000/svg" x="11.2mm" y="37.8mm" width="1.4mm" height="1.4mm"/><svg:rect xmlns:svg="http://www.w3.org/2000/svg" x="14mm" y="37.8mm" width="1.4mm" height="1.4mm"/><svg:rect xmlns:svg="http://www.w3.org/2000/svg" x="15.4mm" y="37.8mm" width="1.4mm" height="1.4mm"/><svg:rect xmlns:svg="http://www.w3.org/2000/svg" x="16.8mm" y="37.8mm" width="1.4mm" height="1.4mm"/><svg:rect xmlns:svg="http://www.w3.org/2000/svg" x="18.2mm" y="37.8mm" width="1.4mm" height="1.4mm"/><svg:rect xmlns:svg="http://www.w3.org/2000/svg" x="19.6mm" y="37.8mm" width="1.4mm" height="1.4mm"/><svg:rect xmlns:svg="http://www.w3.org/2000/svg" x="21mm" y="37.8mm" width="1.4mm" height="1.4mm"/><svg:rect xmlns:svg="http://www.w3.org/2000/svg" x="26.6mm" y="37.8mm" width="1.4mm" height="1.4mm"/><svg:rect xmlns:svg="http://www.w3.org/2000/svg" x="29.4mm" y="37.8mm" width="1.4mm" height="1.4mm"/><svg:rect xmlns:svg="http://www.w3.org/2000/svg" x="30.8mm" y="37.8mm" width="1.4mm" height="1.4mm"/><svg:rect xmlns:svg="http://www.w3.org/2000/svg" x="32.2mm" y="37.8mm" width="1.4mm" height="1.4mm"/><svg:rect xmlns:svg="http://www.w3.org/2000/svg" x="33.6mm" y="37.8mm" width="1.4mm" height="1.4mm"/><svg:rect xmlns:svg="http://www.w3.org/2000/svg" x="36.4mm" y="37.8mm" width="1.4mm" height="1.4mm"/><svg:rect xmlns:svg="http://www.w3.org/2000/svg" x="37.8mm" y="37.8mm" width="1.4mm" height="1.4mm"/><svg:rect xmlns:svg="http://www.w3.org/2000/svg" x="39.2mm" y="37.8mm" width="1.4mm" height="1.4mm"/><svg:rect xmlns:svg="http://www.w3.org/2000/svg" x="40.6mm" y="37.8mm" width="1.4mm" height="1.4mm"/><svg:rect xmlns:svg="http://www.w3.org/2000/svg" x="2.8mm" y="39.2mm" width="1.4mm" height="1.4mm"/><svg:rect xmlns:svg="http://www.w3.org/2000/svg" x="5.6mm" y="39.2mm" width="1.4mm" height="1.4mm"/><svg:rect xmlns:svg="http://www.w3.org/2000/svg" x="7mm" y="39.2mm" width="1.4mm" height="1.4mm"/><svg:rect xmlns:svg="http://www.w3.org/2000/svg" x="8.4mm" y="39.2mm" width="1.4mm" height="1.4mm"/><svg:rect xmlns:svg="http://www.w3.org/2000/svg" x="11.2mm" y="39.2mm" width="1.4mm" height="1.4mm"/><svg:rect xmlns:svg="http://www.w3.org/2000/svg" x="15.4mm" y="39.2mm" width="1.4mm" height="1.4mm"/><svg:rect xmlns:svg="http://www.w3.org/2000/svg" x="18.2mm" y="39.2mm" width="1.4mm" height="1.4mm"/><svg:rect xmlns:svg="http://www.w3.org/2000/svg" x="25.2mm" y="39.2mm" width="1.4mm" height="1.4mm"/><svg:rect xmlns:svg="http://www.w3.org/2000/svg" x="26.6mm" y="39.2mm" width="1.4mm" height="1.4mm"/><svg:rect xmlns:svg="http://www.w3.org/2000/svg" x="29.4mm" y="39.2mm" width="1.4mm" height="1.4mm"/><svg:rect xmlns:svg="http://www.w3.org/2000/svg" x="36.4mm" y="39.2mm" width="1.4mm" height="1.4mm"/><svg:rect xmlns:svg="http://www.w3.org/2000/svg" x="37.8mm" y="39.2mm" width="1.4mm" height="1.4mm"/><svg:rect xmlns:svg="http://www.w3.org/2000/svg" x="39.2mm" y="39.2mm" width="1.4mm" height="1.4mm"/><svg:rect xmlns:svg="http://www.w3.org/2000/svg" x="42mm" y="39.2mm" width="1.4mm" height="1.4mm"/><svg:rect xmlns:svg="http://www.w3.org/2000/svg" x="2.8mm" y="40.6mm" width="1.4mm" height="1.4mm"/><svg:rect xmlns:svg="http://www.w3.org/2000/svg" x="11.2mm" y="40.6mm" width="1.4mm" height="1.4mm"/><svg:rect xmlns:svg="http://www.w3.org/2000/svg" x="15.4mm" y="40.6mm" width="1.4mm" height="1.4mm"/><svg:rect xmlns:svg="http://www.w3.org/2000/svg" x="16.8mm" y="40.6mm" width="1.4mm" height="1.4mm"/><svg:rect xmlns:svg="http://www.w3.org/2000/svg" x="18.2mm" y="40.6mm" width="1.4mm" height="1.4mm"/><svg:rect xmlns:svg="http://www.w3.org/2000/svg" x="21mm" y="40.6mm" width="1.4mm" height="1.4mm"/><svg:rect xmlns:svg="http://www.w3.org/2000/svg" x="22.4mm" y="40.6mm" width="1.4mm" height="1.4mm"/><svg:rect xmlns:svg="http://www.w3.org/2000/svg" x="23.8mm" y="40.6mm" width="1.4mm" height="1.4mm"/><svg:rect xmlns:svg="http://www.w3.org/2000/svg" x="25.2mm" y="40.6mm" width="1.4mm" height="1.4mm"/><svg:rect xmlns:svg="http://www.w3.org/2000/svg" x="26.6mm" y="40.6mm" width="1.4mm" height="1.4mm"/><svg:rect xmlns:svg="http://www.w3.org/2000/svg" x="29.4mm" y="40.6mm" width="1.4mm" height="1.4mm"/><svg:rect xmlns:svg="http://www.w3.org/2000/svg" x="30.8mm" y="40.6mm" width="1.4mm" height="1.4mm"/><svg:rect xmlns:svg="http://www.w3.org/2000/svg" x="33.6mm" y="40.6mm" width="1.4mm" height="1.4mm"/><svg:rect xmlns:svg="http://www.w3.org/2000/svg" x="40.6mm" y="40.6mm" width="1.4mm" height="1.4mm"/><svg:rect xmlns:svg="http://www.w3.org/2000/svg" x="2.8mm" y="42mm" width="1.4mm" height="1.4mm"/><svg:rect xmlns:svg="http://www.w3.org/2000/svg" x="4.2mm" y="42mm" width="1.4mm" height="1.4mm"/><svg:rect xmlns:svg="http://www.w3.org/2000/svg" x="5.6mm" y="42mm" width="1.4mm" height="1.4mm"/><svg:rect xmlns:svg="http://www.w3.org/2000/svg" x="7mm" y="42mm" width="1.4mm" height="1.4mm"/><svg:rect xmlns:svg="http://www.w3.org/2000/svg" x="8.4mm" y="42mm" width="1.4mm" height="1.4mm"/><svg:rect xmlns:svg="http://www.w3.org/2000/svg" x="9.8mm" y="42mm" width="1.4mm" height="1.4mm"/><svg:rect xmlns:svg="http://www.w3.org/2000/svg" x="11.2mm" y="42mm" width="1.4mm" height="1.4mm"/><svg:rect xmlns:svg="http://www.w3.org/2000/svg" x="14mm" y="42mm" width="1.4mm" height="1.4mm"/><svg:rect xmlns:svg="http://www.w3.org/2000/svg" x="16.8mm" y="42mm" width="1.4mm" height="1.4mm"/><svg:rect xmlns:svg="http://www.w3.org/2000/svg" x="19.6mm" y="42mm" width="1.4mm" height="1.4mm"/><svg:rect xmlns:svg="http://www.w3.org/2000/svg" x="26.6mm" y="42mm" width="1.4mm" height="1.4mm"/><svg:rect xmlns:svg="http://www.w3.org/2000/svg" x="30.8mm" y="42mm" width="1.4mm" height="1.4mm"/><svg:rect xmlns:svg="http://www.w3.org/2000/svg" x="33.6mm" y="42mm" width="1.4mm" height="1.4mm"/><svg:rect xmlns:svg="http://www.w3.org/2000/svg" x="35mm" y="42mm" width="1.4mm" height="1.4mm"/><svg:rect xmlns:svg="http://www.w3.org/2000/svg" x="37.8mm" y="42mm" width="1.4mm" height="1.4mm"/><svg:rect xmlns:svg="http://www.w3.org/2000/svg" x="40.6mm" y="42mm" width="1.4mm" height="1.4mm"/></svg>